HIERARCHY
ROOT Hips
{
  OFFSET 39.3903 93.0167 -18.7143
  CHANNELS 6 Xposition Yposition Zposition Zrotation Xrotation Yrotation
  JOINT LeftUpLeg
  {
    OFFSET 9 -3.38008e-006 -5.22998e-009
    CHANNELS 6 Xposition Yposition Zposition Zrotation Xrotation Yrotation
    JOINT LeftLowLeg
    {
      OFFSET -0.575 -51.431 3.90177
      CHANNELS 6 Xposition Yposition Zposition Zrotation Xrotation Yrotation
      JOINT LeftFoot
      {
        OFFSET 2.13082e-007 -43.5882 -3.90177
        CHANNELS 6 Xposition Yposition Zposition Zrotation Xrotation Yrotation
        End Site
        {
          OFFSET 7.44796e-007 -6.93413 15.0046
        }
      }
    }
  }
  JOINT RightUpLeg
  {
    OFFSET -9 6.86154e-007 -3.19533e-009
    CHANNELS 6 Xposition Yposition Zposition Zrotation Xrotation Yrotation
    JOINT RightLowLeg
    {
      OFFSET 0.575 -51.4311 3.90177
      CHANNELS 6 Xposition Yposition Zposition Zrotation Xrotation Yrotation
      JOINT RightFoot
      {
        OFFSET -7.46079e-007 -43.5882 -3.90177
        CHANNELS 6 Xposition Yposition Zposition Zrotation Xrotation Yrotation
        End Site
        {
          OFFSET 4.66716e-007 -6.93413 15.0046
        }
      }
    }
  }
  JOINT Chest
  {
    OFFSET 1.23234e-007 14.8421 1.27324e-009
    CHANNELS 6 Xposition Yposition Zposition Zrotation Xrotation Yrotation
    JOINT Neck
    {
      OFFSET 0.51659 29.8236 6.51843
      CHANNELS 6 Xposition Yposition Zposition Zrotation Xrotation Yrotation
      JOINT Head
      {
        OFFSET 1.16803e-007 7.47049 6.44171e-007
        CHANNELS 6 Xposition Yposition Zposition Zrotation Xrotation Yrotation
        End Site
        {
          OFFSET -4.32676e-008 16.2908 2.16786e-007
        }
      }
    }
    JOINT RightCollar
    {
      OFFSET -6.11406 27.2248 4.23427
      CHANNELS 6 Xposition Yposition Zposition Zrotation Xrotation Yrotation
      JOINT RightUpArm
      {
        OFFSET -10.4566 2.3285 -0.910794
        CHANNELS 6 Xposition Yposition Zposition Zrotation Xrotation Yrotation
        JOINT RightLowArm
        {
          OFFSET -3.86856 -25.191 -1.74633
          CHANNELS 6 Xposition Yposition Zposition Zrotation Xrotation Yrotation
          JOINT RightHand
          {
            OFFSET -1.04759 -20.6242 1.75213
            CHANNELS 6 Xposition Yposition Zposition Zrotation Xrotation Yrotation
            End Site
            {
              OFFSET -2.03487e-006 -9.50367 -4.31372e-006
            }
          }
        }
      }
    }
    JOINT LeftCollar
    {
      OFFSET 6.64893 27.3161 3.27471
      CHANNELS 6 Xposition Yposition Zposition Zrotation Xrotation Yrotation
      JOINT LeftUpArm
      {
        OFFSET 10.8584 2.41798 -0.945791
        CHANNELS 6 Xposition Yposition Zposition Zrotation Xrotation Yrotation
        JOINT LeftLowArm
        {
          OFFSET 3.77631 -24.5904 -1.70468
          CHANNELS 6 Xposition Yposition Zposition Zrotation Xrotation Yrotation
          JOINT LeftHand
          {
            OFFSET 1.01026 -21.1231 1.74131
            CHANNELS 6 Xposition Yposition Zposition Zrotation Xrotation Yrotation
            End Site
            {
              OFFSET 1.17583e-006 -9.81266 -2.89439e-008
            }
          }
        }
      }
    }
  }
}
MOTION
Frames:	11
Frame Time:	0.0333333
18.6234 94.5376 34.7347 4.2924 -1.66537 -140.782 9 -3.38008e-006 -5.22886e-009 1.87359 -21.1892 -1.29068 -0.575 -51.431 3.90177 5.85395 39.4318 -33.2518 2.13082e-007 -43.5882 -3.90177 18.4045 -20.3056 1.39642 -9 6.86154e-007 -3.18225e-009 -15.822 -28.6006 -16.345 0.575 -51.4311 3.90177 -4.26766 14.2907 48.172 -7.46079e-007 -43.5882 -3.90177 -3.08985 16.8999 0.528755 1.23238e-007 14.8421 1.27735e-009 7.01954 4.86638 -2.26388 0.51659 29.8236 6.51843 5.57347 -10.4359 -4.05157 1.16803e-007 7.47049 6.44171e-007 -6.19165 15.0745 -0.177661 -6.11406 27.2248 4.23427 -1.96452 7.32629 3.42623 -10.4566 2.3285 -0.910794 -96.488 -80.5212 -167.282 -3.86856 -25.191 -1.74633 126.525 -35.9368 93.3767 -1.04759 -20.6242 1.75213 -26.4878 22.8752 0.814156 6.64893 27.3161 3.27471 -2.94784 5.93879 -4.20517 10.8584 2.41798 -0.945791 -21.8957 -44.3781 -87.2438 3.77631 -24.5904 -1.70468 33.1353 -13.6528 -27.9309 1.01026 -21.1231 1.74131 7.71751 15.9899 0.544747 
16.8619 96.237 37.382 7.06765 -2.66658 -158.032 9 -3.38008e-006 -5.22892e-009 7.96623 -19.6547 8.18909 -0.575 -51.431 3.90177 0.754714 36.6544 -23.2039 2.13082e-007 -43.5882 -3.90177 17.4969 -20.3734 1.33269 -9 6.86154e-007 -3.18225e-009 -7.17165 -31.0443 -10.91 0.575 -51.4311 3.90177 -5.35638 13.9209 25.2786 -7.46079e-007 -43.5882 -3.90177 -2.04025 13.5277 0.218772 1.23238e-007 14.8421 1.27735e-009 6.44942 5.02418 -16.1143 0.51659 29.8236 6.51843 1.01988 -8.38509 -12.8882 1.16803e-007 7.47049 6.44171e-007 4.48013 15.906 -12.7681 -6.11406 27.2248 4.23427 -1.96452 7.32629 3.42623 -10.4566 2.3285 -0.910794 -48.4025 -82.8164 -80.0586 -3.86856 -25.191 -1.74633 115.037 -51.0699 88.829 -1.04759 -20.6242 1.75213 -29.6665 26.154 1.76014 6.64893 27.3161 3.27471 -2.94784 5.93879 -4.20517 10.8584 2.41798 -0.945791 -17.6169 -42.9213 -70.7252 3.77631 -24.5904 -1.70468 32.2903 -13.882 -28.332 1.01026 -21.1231 1.74131 13.8623 16.9854 0.38753 
14.8677 97.5256 38.9573 8.59523 -5.81453 -174.161 9 -3.38008e-006 -5.22897e-009 12.279 -18.1639 15.5324 -0.575 -51.431 3.90177 -3.81487 33.7405 -13.9623 2.13082e-007 -43.5882 -3.90177 15.833 -20.3427 1.18908 -9 6.86154e-007 -3.18226e-009 -1.34264 -31.086 -8.30052 0.575 -51.4311 3.90177 -4.8102 19.043 7.65226 -7.46079e-007 -43.5882 -3.90177 0.197737 15.1671 -0.264982 1.23238e-007 14.8421 1.27734e-009 1.80467 0.424636 -27.6535 0.51659 29.8236 6.51843 -2.80675 2.90471 -20.1539 1.16803e-007 7.47049 6.44171e-007 13.8868 9.78119 -23.0427 -6.11406 27.2248 4.23427 -1.96452 7.32629 3.42623 -10.4566 2.3285 -0.910794 -49.1988 -74.4192 -32.1422 -3.86856 -25.191 -1.74633 80.9558 -65.9205 63.615 -1.04759 -20.6242 1.75213 -29.9716 25.989 1.76807 6.64893 27.3161 3.27471 -2.94784 5.93879 -4.20517 10.8584 2.41798 -0.945791 -11.7827 -35.28 -59.5637 3.77631 -24.5904 -1.70468 37.4785 -16.5477 -29.0985 1.01026 -21.1231 1.74131 20.2929 16.5899 0.283208 
12.7034 98.5228 39.229 6.63454 -7.55874 166.727 9 -3.38008e-006 -5.22903e-009 12.5225 -13.5602 19.6006 -0.575 -51.431 3.90177 -7.32869 29.6683 -1.92636 2.13082e-007 -43.5882 -3.90177 13.0528 -20.7662 1.00379 -9 6.86154e-007 -3.18226e-009 0.84256 -27.9752 -7.43981 0.575 -51.4311 3.90177 -5.48729 26.7848 4.40083 -7.46079e-007 -43.5882 -3.90177 0.826885 16.5823 -0.433131 1.23238e-007 14.8421 1.27734e-009 -6.84824 -2.49029 -34.3223 0.51659 29.8236 6.51843 5.54149 18.407 -24.6202 1.16803e-007 7.47049 6.44171e-007 15.6414 -6.88008 -23.3843 -6.11406 27.2248 4.23427 -1.96452 7.32629 3.42623 -10.4566 2.3285 -0.910794 -60.837 -62.6036 12.9282 -3.86856 -25.191 -1.74633 28.0054 -66.0955 25.2907 -1.04759 -20.6242 1.75213 -22.7716 17.3846 -0.139405 6.64893 27.3161 3.27471 -2.94784 5.93879 -4.20517 10.8584 2.41798 -0.945791 -1.4976 -24.9777 -46.3562 3.77631 -24.5904 -1.70468 40.5235 -30.748 -24.2753 1.01026 -21.1231 1.74131 21.3278 13.8181 0.606631 
11.0106 99.1682 39.1759 3.71382 -8.2882 146.6 9 -3.38008e-006 -5.22909e-009 10.0694 -10.6547 19.5588 -0.575 -51.431 3.90177 -7.90522 26.4094 9.03694 2.13082e-007 -43.5882 -3.90177 10.0112 -21.4561 0.80711 -9 6.86154e-007 -3.18226e-009 -0.279888 -24.7234 -7.16054 0.575 -51.4311 3.90177 -8.60199 32.9058 6.93142 -7.46079e-007 -43.5882 -3.90177 0.347175 15.2262 -0.296914 1.23238e-007 14.8421 1.27734e-009 -11.2408 -3.45201 -36.8823 0.51659 29.8236 6.51843 9.93734 19.9141 -24.6918 1.16803e-007 7.47049 6.44171e-007 17.9553 -7.03587 -21.4218 -6.11406 27.2248 4.23427 -1.96452 7.32629 3.42623 -10.4566 2.3285 -0.910794 -64.5629 -45.5291 37.2622 -3.86856 -25.191 -1.74633 5.15613 -51.1973 26.372 -1.04759 -20.6242 1.75213 -14.8423 11.4059 -1.07576 6.64893 27.3161 3.27471 -2.94784 5.93879 -4.20517 10.8584 2.41798 -0.945791 7.59783 -14.3744 -25.9089 3.77631 -24.5904 -1.70468 39.9512 -53.9955 -20.0167 1.01026 -21.1231 1.74131 22.7356 13.5347 0.664071 
10.1379 99.4537 39.4792 2.6549 -9.18515 128.616 9 -3.38008e-006 -5.22914e-009 9.38409 -10.3527 18.4999 -0.575 -51.431 3.90177 -7.00276 25.8547 8.94511 2.13082e-007 -43.5882 -3.90177 9.17413 -21.3972 0.726252 -9 6.86154e-007 -3.18227e-009 -3.03354 -20.4054 -9.00823 0.575 -51.4311 3.90177 -9.22172 32.4181 8.83854 -7.46079e-007 -43.5882 -3.90177 0.305347 17.3339 -0.326968 1.23238e-007 14.8421 1.27734e-009 -7.10799 -2.74067 -34.9069 0.51659 29.8236 6.51843 11.2139 13.039 -23.469 1.16803e-007 7.47049 6.44171e-007 19.0906 -0.170937 -20.9515 -6.11406 27.2248 4.23427 -1.96452 7.32629 3.42623 -10.4566 2.3285 -0.910794 -56.2461 -44.3136 -10.3543 -3.86856 -25.191 -1.74633 -14.0039 -15.7009 40.1617 -1.04759 -20.6242 1.75213 -17.0696 8.12849 -0.604418 6.64893 27.3161 3.27471 -2.94784 5.93879 -4.20517 10.8584 2.41798 -0.945791 8.75778 -5.7782 -5.68999 3.77631 -24.5904 -1.70468 45.2369 -70.0098 -9.58745 1.01026 -21.1231 1.74131 28.7909 15.6874 0.201267 
9.42831 99.0228 40.4291 1.09226 -11.5788 112.138 9 -3.38008e-006 -5.22919e-009 11.5552 -13.2871 18.877 -0.575 -51.431 3.90177 -6.18301 28.9045 2.63818 2.13082e-007 -43.5882 -3.90177 11.6362 -22.0944 1.01868 -9 6.86154e-007 -3.18227e-009 -6.13059 -18.303 -12.5526 0.575 -51.4311 3.90177 -7.43492 29.345 6.53516 -7.46079e-007 -43.5882 -3.90177 0.909742 21.3759 -0.559396 1.23238e-007 14.8421 1.27733e-009 7.44912 -3.04935 -28.4951 0.51659 29.8236 6.51843 11.0926 -0.317455 -20.6688 1.16803e-007 7.47049 6.44171e-007 14.0472 2.89729 -18.8037 -6.11406 27.2248 4.23427 -1.96452 7.32629 3.42623 -10.4566 2.3285 -0.910794 -85.26 -25.1489 -70.5096 -3.86856 -25.191 -1.74633 -25.3222 -4.27161 -2.93226 -1.04759 -20.6242 1.75213 24.2934 -28.5135 12.5104 6.64893 27.3161 3.27471 -2.94784 5.93879 -4.20517 10.8584 2.41798 -0.945791 5.38661 1.33651 11.445 3.77631 -24.5904 -1.70468 51.7796 -74.4872 5.75911 1.01026 -21.1231 1.74131 37.175 20.2761 -1.09233 
8.39281 97.969 41.7062 -4.07202 -11.9918 96.2495 9 -3.38008e-006 -5.22925e-009 12.4512 -19.264 18.8717 -0.575 -51.431 3.90177 -4.93375 34.3022 1.40934 2.13082e-007 -43.5882 -3.90177 12.1119 -20.8298 0.932717 -9 6.86154e-007 -3.18228e-009 -11.4741 -20.7663 -16.9708 0.575 -51.4311 3.90177 -6.55572 28.0984 0.598249 -7.46079e-007 -43.5882 -3.90177 1.69746 24.8147 -0.881113 1.23238e-007 14.8421 1.27733e-009 7.93275 -6.33146 -20.295 0.51659 29.8236 6.51843 20.1602 -15.2337 -21.8649 1.16803e-007 7.47049 6.44171e-007 -1.07214 0.941588 -15.5784 -6.11406 27.2248 4.23427 -1.96452 7.32629 3.42623 -10.4566 2.3285 -0.910794 -86.5366 8.34044 -42.6763 -3.86856 -25.191 -1.74633 0.789215 5.88664 -62.8851 -1.04759 -20.6242 1.75213 66.7074 -36.7723 37.4244 6.64893 27.3161 3.27471 -2.94784 5.93879 -4.20517 10.8584 2.41798 -0.945791 7.5312 9.50228 24.4524 3.77631 -24.5904 -1.70468 58.7179 -80.8711 16.0861 1.01026 -21.1231 1.74131 39.9774 19.9283 -1.20998 
8.27977 96.9141 43.6034 -4.19888 -9.46372 84.2868 9 -3.38008e-006 -5.2293e-009 12.4247 -19.3162 17.1054 -0.575 -51.431 3.90177 -2.16557 38.6523 -0.818697 2.13082e-007 -43.5882 -3.90177 12.4908 -19.4677 0.815802 -9 6.86154e-007 -3.18228e-009 -14.5734 -18.7627 -18.7419 0.575 -51.4311 3.90177 -6.77132 25.088 3.02925 -7.46079e-007 -43.5882 -3.90177 2.57756 28.8803 -1.28922 1.23238e-007 14.8421 1.27733e-009 3.43283 -5.30164 -13.7335 0.51659 29.8236 6.51843 23.6301 -10.7411 -27.4433 1.16803e-007 7.47049 6.44171e-007 2.43489 -3.74185 -20.8687 -6.11406 27.2248 4.23427 -1.96452 7.32629 3.42623 -10.4566 2.3285 -0.910794 -67.4654 14.3641 -48.9797 -3.86856 -25.191 -1.74633 -13.4483 2.19284 -15.1769 -1.04759 -20.6242 1.75213 -26.4173 -19.9529 -8.31651 6.64893 27.3161 3.27471 -2.94784 5.93879 -4.20517 10.8584 2.41798 -0.945791 12.7786 13.6501 32.4117 3.77631 -24.5904 -1.70468 51.0006 -88.0113 10.62 1.01026 -21.1231 1.74131 45.101 21.4236 -2.0056 
8.44361 95.2979 46.0154 -3.55678 -7.32823 70.5263 9 -3.38008e-006 -5.22935e-009 12.5054 -18.3102 13.7507 -0.575 -51.431 3.90177 1.78463 43.6163 -5.22573 2.13082e-007 -43.5882 -3.90177 13.4316 -18.9264 0.820583 -9 6.86154e-007 -3.18229e-009 -14.639 -17.2891 -18.2609 0.575 -51.4311 3.90177 -6.31642 22.457 13.8165 -7.46079e-007 -43.5882 -3.90177 1.7405 26.531 -0.960571 1.23238e-007 14.8421 1.27732e-009 3.2031 -2.31195 -13.3923 0.51659 29.8236 6.51843 14.4038 1.13755 -28.6121 1.16803e-007 7.47049 6.44171e-007 14.5179 1.49553 -24.7288 -6.11406 27.2248 4.23427 -1.96452 7.32629 3.42623 -10.4566 2.3285 -0.910794 -67.1776 4.47942 -48.8963 -3.86856 -25.191 -1.74633 -16.671 1.43388 -7.87308 -1.04759 -20.6242 1.75213 -8.85033 14.5853 -0.406826 6.64893 27.3161 3.27471 -2.94784 5.93879 -4.20517 10.8584 2.41798 -0.945791 13.6307 12.849 42.7728 3.77631 -24.5904 -1.70468 -126.625 -86.5852 -157.431 1.01026 -21.1231 1.74131 38.6344 21.7721 -1.68305 
7.05468 93.5408 48.0607 -5.2185 -5.97426 56.7646 9 -3.38008e-006 -5.2294e-009 13.8437 -19.5927 11.2833 -0.575 -51.431 3.90177 5.01164 48.144 -11.032 2.13082e-007 -43.5882 -3.90177 14.7774 -18.6644 0.88285 -9 6.86154e-007 -3.1823e-009 -12.5199 -21.4012 -16.4428 0.575 -51.4311 3.90177 -6.18092 22.5278 18.1749 -7.46079e-007 -43.5882 -3.90177 -1.12775 16.9014 0.00981408 1.23238e-007 14.8421 1.27732e-009 3.29096 0.0882048 -11.7527 0.51659 29.8236 6.51843 18.0849 1.94751 -23.679 1.16803e-007 7.47049 6.44171e-007 2.30677 3.00145 -16.6205 -6.11406 27.2248 4.23427 -1.96452 7.32629 3.42623 -10.4566 2.3285 -0.910794 -71.2811 -10.2721 -65.3579 -3.86856 -25.191 -1.74633 -23.8824 -4.93472 5.52461 -1.04759 -20.6242 1.75213 -8.90208 4.72525 -0.873483 6.64893 27.3161 3.27471 -2.94784 5.93879 -4.20517 10.8584 2.41798 -0.945791 19.5906 9.47377 38.1867 3.77631 -24.5904 -1.70468 -140.449 -83.7018 -173.908 1.01026 -21.1231 1.74131 35.1029 18.7077 -0.595476 
